<svg xmlns="http://www.w3.org/2000/svg" xmlns:xlink="http://www.w3.org/1999/xlink" width="141" viewBox="0 0 105.75 129.749996" height="173" preserveAspectRatio="xMidYMid meet"><defs><clipPath id="b8d9390aa8"><path d="M 14.742188 0.0273438 L 84.464844 0.0273438 L 84.464844 75.992188 L 14.742188 75.992188 Z M 14.742188 0.0273438 " clip-rule="nonzero"></path></clipPath><clipPath id="d4e1b30be4"><path d="M 79.34375 71.453125 L 78.625 71.886719 C 77.414062 71.707031 76.652344 71.574219 75.902344 71.445312 C 65.972656 69.710938 57.429688 64.609375 51.808594 57.550781 C 55.28125 52.367188 57.390625 46.402344 57.742188 40.074219 L 79.15625 39.746094 L 79.621094 70.382812 C 79.628906 70.78125 79.652344 71.148438 79.34375 71.445312 M 49.265625 53.886719 C 47.074219 50.242188 45.605469 46.210938 45.023438 41.9375 L 44.792969 40.269531 L 53.539062 40.132812 L 53.351562 41.726562 C 52.84375 46.066406 51.421875 50.167969 49.257812 53.878906 M 44.886719 34.785156 C 45.332031 30.234375 46.78125 25.933594 49.042969 22.042969 C 51.332031 25.855469 52.835938 30.09375 53.359375 34.574219 L 53.554688 36.25 L 44.738281 36.25 Z M 19.195312 36.25 L 19.3125 5.601562 C 19.320312 5.199219 19.304688 4.832031 19.613281 4.539062 L 20.339844 4.121094 C 21.542969 4.316406 22.308594 4.457031 23.054688 4.601562 C 32.730469 6.441406 41.011719 11.484375 46.496094 18.375 C 42.957031 23.671875 40.832031 29.777344 40.550781 36.242188 Z M 84.101562 70.535156 L 83.476562 35.867188 L 57.742188 36.265625 C 57.382812 29.746094 55.167969 23.636719 51.539062 18.359375 C 56.671875 11.714844 64.386719 6.738281 73.464844 4.601562 L 76.875 3.933594 C 77.316406 3.859375 77.734375 3.980469 78.042969 4.269531 C 78.347656 4.5625 78.347656 13.121094 78.355469 13.519531 L 78.453125 13.636719 L 82.898438 13.550781 L 82.90625 4.78125 C 83.035156 1.097656 81.769531 -0.59375 76.253906 0.230469 C 65.007812 1.90625 55.402344 7.398438 48.996094 15.054688 C 42.660156 7.683594 33.34375 2.40625 22.578125 0.6875 C 15.714844 -0.414062 14.699219 0.589844 14.832031 5.394531 L 14.800781 40.066406 L 40.59375 40.066406 C 41.027344 46.449219 43.226562 52.417969 46.773438 57.582031 C 41.507812 64.375 33.546875 69.425781 24.199219 71.476562 L 20.78125 72.089844 C 20.339844 72.15625 19.921875 72.03125 19.621094 71.738281 L 19.328125 71.074219 L 19.179688 63.417969 L 14.742188 63.402344 L 14.765625 71.15625 C 14.5625 74.835938 15.796875 76.542969 21.335938 75.800781 C 32.871094 74.269531 42.757812 68.707031 49.316406 60.882812 C 55.8125 68.425781 65.414062 73.757812 76.464844 75.351562 C 77.355469 75.488281 81.703125 76.585938 83.152344 74.964844 C 83.8125 74.230469 84.097656 72.710938 84.109375 72.613281 C 84.261719 71.753906 84.199219 71.027344 84.117188 70.527344 " clip-rule="nonzero"></path></clipPath><clipPath id="834203a671"><path d="M 3.742188 86.921875 L 13.0625 86.921875 L 13.0625 88.910156 L 3.742188 88.910156 Z M 3.742188 86.921875 " clip-rule="nonzero"></path></clipPath><clipPath id="e8a2427ef5"><path d="M 3.742188 92.246094 L 12.257812 92.246094 L 12.257812 94.246094 L 3.742188 94.246094 Z M 3.742188 94.246094 L 5.941406 94.246094 L 5.941406 97.613281 L 3.742188 97.613281 Z M 3.742188 97.613281 L 13.152344 97.613281 L 13.152344 99.609375 L 3.742188 99.609375 Z M 3.742188 97.613281 " clip-rule="nonzero"></path></clipPath><clipPath id="ab065d0832"><path d="M 15.945312 86.824219 L 29.140625 86.824219 L 29.140625 99.65625 L 15.945312 99.65625 Z M 15.945312 86.824219 " clip-rule="nonzero"></path></clipPath><clipPath id="bbd5f91d39"><path d="M 21.527344 99.609375 L 23.578125 99.609375 L 29.121094 86.921875 L 26.855469 86.921875 C 24.691406 91.984375 24.910156 91.550781 22.589844 96.96875 C 20.449219 92.015625 20.269531 91.574219 18.324219 86.921875 L 15.980469 86.921875 Z M 21.527344 99.609375 " clip-rule="nonzero"></path></clipPath><clipPath id="217ad7d997"><path d="M 61.9375 87.011719 L 72.160156 87.011719 L 72.160156 89.058594 L 61.9375 89.058594 Z M 65.933594 89.058594 L 68.164062 89.058594 L 68.164062 99.609375 L 65.933594 99.609375 Z M 65.933594 89.058594 " clip-rule="nonzero"></path></clipPath><clipPath id="67944d35d1"><path d="M 72.03125 86.824219 L 84.675781 86.824219 L 84.675781 99.65625 L 72.03125 99.65625 Z M 72.03125 86.824219 " clip-rule="nonzero"></path></clipPath><clipPath id="1704427e45"><path d="M 78.332031 89.921875 L 82.132812 99.601562 L 84.578125 99.601562 L 79.34375 86.914062 L 77.398438 86.914062 L 72.160156 99.601562 L 74.554688 99.601562 Z M 78.332031 89.921875 " clip-rule="nonzero"></path></clipPath><clipPath id="1becb8dc2e"><path d="M 32.660156 86.921875 L 41.984375 86.921875 L 41.984375 88.910156 L 32.660156 88.910156 Z M 32.660156 86.921875 " clip-rule="nonzero"></path></clipPath><clipPath id="f7a8b85cb9"><path d="M 32.660156 92.246094 L 41.167969 92.246094 L 41.167969 94.246094 L 32.660156 94.246094 Z M 32.660156 94.246094 L 34.851562 94.246094 L 34.851562 97.613281 L 32.660156 97.613281 Z M 32.660156 97.613281 L 42.074219 97.613281 L 42.074219 99.609375 L 32.660156 99.609375 Z M 32.660156 97.613281 " clip-rule="nonzero"></path></clipPath><clipPath id="b60b70870e"><path d="M 85.027344 87.011719 L 95.25 87.011719 L 95.25 89.058594 L 85.027344 89.058594 Z M 89.023438 89.058594 L 91.253906 89.058594 L 91.253906 99.609375 L 89.023438 99.609375 Z M 89.023438 89.058594 " clip-rule="nonzero"></path></clipPath><clipPath id="9185577b7d"><path d="M 45.636719 86.644531 L 58.46875 86.644531 L 58.46875 99.65625 L 45.636719 99.65625 Z M 45.636719 86.644531 " clip-rule="nonzero"></path></clipPath><clipPath id="13104e3421"><path d="M 58.421875 86.808594 L 58.421875 99.550781 L 56.125 99.550781 L 47.925781 90.046875 L 47.925781 89.957031 L 47.925781 99.609375 L 45.761719 99.609375 L 45.761719 86.859375 L 47.925781 86.859375 L 49.710938 88.964844 L 56.117188 96.191406 L 56.117188 86.921875 Z M 58.421875 86.808594 " clip-rule="nonzero"></path></clipPath><clipPath id="1cbfd98194"><path d="M 3.664062 113.769531 L 22.175781 113.769531 L 22.175781 120.550781 L 3.664062 120.550781 Z M 3.664062 113.769531 " clip-rule="nonzero"></path></clipPath><clipPath id="5f7e1bba0f"><path d="M 7.902344 120.457031 C 6.847656 120.457031 5.886719 120.125 5.027344 119.46875 C 4.167969 118.808594 3.742188 117.980469 3.742188 116.953125 L 3.742188 113.886719 L 6.292969 113.886719 L 6.292969 116.953125 C 6.292969 117.246094 6.441406 117.523438 6.742188 117.777344 L 7.429688 118.160156 L 19.535156 118.160156 L 19.535156 113.894531 L 22.085938 113.894531 L 22.085938 118.167969 C 22.085938 118.796875 21.839844 119.332031 21.347656 119.789062 C 20.851562 120.246094 20.253906 120.472656 19.558594 120.472656 Z M 7.902344 120.457031 " clip-rule="nonzero"></path></clipPath><clipPath id="dc8120e846"><path d="M 28.226562 106.621094 L 85 106.621094 L 85 120.550781 L 28.226562 120.550781 Z M 28.226562 106.621094 " clip-rule="nonzero"></path></clipPath><clipPath id="196c71fbba"><path d="M 66.871094 118.160156 L 63.6875 118.160156 L 63.6875 114.460938 L 66.871094 114.460938 Z M 82.648438 118.160156 L 69.128906 118.160156 L 69.128906 112.359375 L 61.4375 112.359375 L 61.4375 118.160156 L 47.488281 118.160156 L 47.488281 112.226562 L 45.246094 112.226562 L 45.246094 118.160156 L 30.632812 118.160156 L 30.632812 106.800781 L 28.386719 106.800781 L 28.386719 118.179688 C 28.386719 118.839844 28.613281 119.386719 29.0625 119.8125 C 29.511719 120.238281 30.035156 120.457031 30.648438 120.457031 L 82.621094 120.457031 C 83.234375 120.457031 83.765625 120.238281 84.214844 119.8125 C 84.664062 119.386719 84.886719 118.839844 84.886719 118.179688 L 84.886719 112.226562 L 82.640625 112.226562 Z M 82.648438 118.160156 " clip-rule="nonzero"></path></clipPath><clipPath id="0e7e71568c"><path d="M 89.03125 106.667969 L 91.261719 106.667969 L 91.261719 115.964844 L 89.03125 115.964844 Z M 89.03125 106.667969 " clip-rule="nonzero"></path></clipPath><clipPath id="5bb5caec5a"><path d="M 89 118 L 91.277344 118 L 91.277344 120.550781 L 89 120.550781 Z M 89 118 " clip-rule="nonzero"></path></clipPath><clipPath id="b4816088eb"><path d="M 91.261719 118.160156 L 91.261719 118.1875 C 91.230469 118.824219 91.039062 119.347656 90.679688 119.769531 L 90.011719 120.3125 C 89.390625 120.433594 89.210938 120.449219 89.03125 120.449219 L 89.03125 118.160156 Z M 91.261719 118.160156 " clip-rule="nonzero"></path></clipPath><clipPath id="da47abbb46"><path d="M 77.40625 122.859375 L 79.703125 122.859375 L 79.703125 125.058594 L 77.40625 125.058594 Z M 77.40625 122.859375 " clip-rule="nonzero"></path></clipPath><clipPath id="e1d7549cd3"><path d="M 75.109375 122.859375 L 77.40625 122.859375 L 77.40625 125.058594 L 75.109375 125.058594 Z M 75.109375 122.859375 " clip-rule="nonzero"></path></clipPath><clipPath id="fa1db44586"><path d="M 64.332031 109.058594 L 66.628906 109.058594 L 66.628906 111.261719 L 64.332031 111.261719 Z M 64.332031 109.058594 " clip-rule="nonzero"></path></clipPath><clipPath id="6b18e925bf"><path d="M 53.730469 111.261719 L 56.027344 111.261719 L 56.027344 113.46875 L 53.730469 113.46875 Z M 53.730469 111.261719 " clip-rule="nonzero"></path></clipPath><clipPath id="11c946027e"><path d="M 13.730469 111.261719 L 16.027344 111.261719 L 16.027344 113.46875 L 13.730469 113.46875 Z M 13.730469 111.261719 " clip-rule="nonzero"></path></clipPath><clipPath id="2639d61822"><path d="M 11.433594 111.261719 L 13.730469 111.261719 L 13.730469 113.46875 L 11.433594 113.46875 Z M 11.433594 111.261719 " clip-rule="nonzero"></path></clipPath><clipPath id="98a1ec2dfe"><path d="M 38.03125 111.261719 L 40.328125 111.261719 L 40.328125 113.46875 L 38.03125 113.46875 Z M 38.03125 111.261719 " clip-rule="nonzero"></path></clipPath><clipPath id="5a35e7309a"><path d="M 35.742188 111.203125 L 38.125 111.203125 L 38.125 113.585938 L 35.742188 113.585938 Z M 35.742188 111.203125 " clip-rule="nonzero"></path></clipPath><clipPath id="4f54f9d2a5"><path d="M 38.03125 113.46875 L 35.742188 113.46875 L 35.742188 111.261719 L 38.039062 111.261719 Z M 38.03125 113.46875 " clip-rule="nonzero"></path></clipPath><clipPath id="56ed679379"><path d="M 89.003906 118.113281 L 91.300781 118.113281 L 91.300781 120.410156 L 89.003906 120.410156 Z M 89.003906 118.113281 " clip-rule="nonzero"></path></clipPath><clipPath id="27ba00ffe8"><path d="M 98.332031 85.617188 L 99.46875 85.617188 L 99.46875 87.347656 L 98.332031 87.347656 Z M 96.605469 87.347656 L 101.199219 87.347656 L 101.199219 88.484375 L 96.605469 88.484375 Z M 98.332031 88.484375 L 99.46875 88.484375 L 99.46875 90.210938 L 98.332031 90.210938 Z M 98.332031 88.484375 " clip-rule="nonzero"></path></clipPath></defs><g clip-path="url(#b8d9390aa8)"><g clip-path="url(#d4e1b30be4)"><path fill="#ffffff" d="M 14.742188 0.0273438 L 84.195312 0.0273438 L 84.195312 75.992188 L 14.742188 75.992188 Z M 14.742188 0.0273438 " fill-opacity="1" fill-rule="nonzero"></path></g></g><g clip-path="url(#834203a671)"><path fill="#ffffff" d="M 0 81.878906 L 105.023438 81.878906 L 105.023438 128.796875 L 0 128.796875 Z M 0 81.878906 " fill-opacity="1" fill-rule="nonzero"></path></g><g clip-path="url(#e8a2427ef5)"><path fill="#ffffff" d="M 0 81.878906 L 105.023438 81.878906 L 105.023438 128.796875 L 0 128.796875 Z M 0 81.878906 " fill-opacity="1" fill-rule="nonzero"></path></g><g clip-path="url(#ab065d0832)"><g clip-path="url(#bbd5f91d39)"><path fill="#ffffff" d="M 0 81.878906 L 105.023438 81.878906 L 105.023438 128.796875 L 0 128.796875 Z M 0 81.878906 " fill-opacity="1" fill-rule="nonzero"></path></g></g><g clip-path="url(#217ad7d997)"><path fill="#ffffff" d="M 0 81.878906 L 105.023438 81.878906 L 105.023438 128.796875 L 0 128.796875 Z M 0 81.878906 " fill-opacity="1" fill-rule="nonzero"></path></g><g clip-path="url(#67944d35d1)"><g clip-path="url(#1704427e45)"><path fill="#ffffff" d="M 0 81.878906 L 105.023438 81.878906 L 105.023438 128.796875 L 0 128.796875 Z M 0 81.878906 " fill-opacity="1" fill-rule="nonzero"></path></g></g><g clip-path="url(#1becb8dc2e)"><path fill="#ffffff" d="M 0 81.878906 L 105.023438 81.878906 L 105.023438 128.796875 L 0 128.796875 Z M 0 81.878906 " fill-opacity="1" fill-rule="nonzero"></path></g><g clip-path="url(#f7a8b85cb9)"><path fill="#ffffff" d="M 0 81.878906 L 105.023438 81.878906 L 105.023438 128.796875 L 0 128.796875 Z M 0 81.878906 " fill-opacity="1" fill-rule="nonzero"></path></g><g clip-path="url(#b60b70870e)"><path fill="#ffffff" d="M 0 81.878906 L 105.023438 81.878906 L 105.023438 128.796875 L 0 128.796875 Z M 0 81.878906 " fill-opacity="1" fill-rule="nonzero"></path></g><g clip-path="url(#9185577b7d)"><g clip-path="url(#13104e3421)"><path fill="#ffffff" d="M 0 81.878906 L 105.023438 81.878906 L 105.023438 128.796875 L 0 128.796875 Z M 0 81.878906 " fill-opacity="1" fill-rule="nonzero"></path></g></g><g clip-path="url(#1cbfd98194)"><g clip-path="url(#5f7e1bba0f)"><path fill="#ffffff" d="M 0 81.878906 L 105.023438 81.878906 L 105.023438 128.796875 L 0 128.796875 Z M 0 81.878906 " fill-opacity="1" fill-rule="nonzero"></path></g></g><g clip-path="url(#dc8120e846)"><g clip-path="url(#196c71fbba)"><path fill="#ffffff" d="M 0 81.878906 L 105.023438 81.878906 L 105.023438 128.796875 L 0 128.796875 Z M 0 81.878906 " fill-opacity="1" fill-rule="nonzero"></path></g></g><g clip-path="url(#0e7e71568c)"><path fill="#ffffff" d="M 0 81.878906 L 105.023438 81.878906 L 105.023438 128.796875 L 0 128.796875 Z M 0 81.878906 " fill-opacity="1" fill-rule="nonzero"></path></g><g clip-path="url(#5bb5caec5a)"><g clip-path="url(#b4816088eb)"><path fill="#ffffff" d="M 0 81.878906 L 105.023438 81.878906 L 105.023438 128.796875 L 0 128.796875 Z M 0 81.878906 " fill-opacity="1" fill-rule="nonzero"></path></g></g><g clip-path="url(#da47abbb46)"><path fill="#ffffff" d="M 0 81.878906 L 105.023438 81.878906 L 105.023438 128.796875 L 0 128.796875 Z M 0 81.878906 " fill-opacity="1" fill-rule="nonzero"></path></g><g clip-path="url(#e1d7549cd3)"><path fill="#ffffff" d="M 0 81.878906 L 105.023438 81.878906 L 105.023438 128.796875 L 0 128.796875 Z M 0 81.878906 " fill-opacity="1" fill-rule="nonzero"></path></g><g clip-path="url(#fa1db44586)"><path fill="#ffffff" d="M 0 81.878906 L 105.023438 81.878906 L 105.023438 128.796875 L 0 128.796875 Z M 0 81.878906 " fill-opacity="1" fill-rule="nonzero"></path></g><g clip-path="url(#6b18e925bf)"><path fill="#ffffff" d="M 0 81.878906 L 105.023438 81.878906 L 105.023438 128.796875 L 0 128.796875 Z M 0 81.878906 " fill-opacity="1" fill-rule="nonzero"></path></g><g clip-path="url(#11c946027e)"><path fill="#ffffff" d="M 0 81.878906 L 105.023438 81.878906 L 105.023438 128.796875 L 0 128.796875 Z M 0 81.878906 " fill-opacity="1" fill-rule="nonzero"></path></g><g clip-path="url(#2639d61822)"><path fill="#ffffff" d="M 0 81.878906 L 105.023438 81.878906 L 105.023438 128.796875 L 0 128.796875 Z M 0 81.878906 " fill-opacity="1" fill-rule="nonzero"></path></g><g clip-path="url(#98a1ec2dfe)"><path fill="#ffffff" d="M 0 81.878906 L 105.023438 81.878906 L 105.023438 128.796875 L 0 128.796875 Z M 0 81.878906 " fill-opacity="1" fill-rule="nonzero"></path></g><g clip-path="url(#5a35e7309a)"><g clip-path="url(#4f54f9d2a5)"><path fill="#ffffff" d="M 0 81.878906 L 105.023438 81.878906 L 105.023438 128.796875 L 0 128.796875 Z M 0 81.878906 " fill-opacity="1" fill-rule="nonzero"></path></g></g><g clip-path="url(#56ed679379)"><path fill="#ffffff" d="M 0 81.878906 L 105.023438 81.878906 L 105.023438 128.796875 L 0 128.796875 Z M 0 81.878906 " fill-opacity="1" fill-rule="nonzero"></path></g><g clip-path="url(#27ba00ffe8)"><path fill="#ffffff" d="M 0 81.878906 L 105.023438 81.878906 L 105.023438 128.796875 L 0 128.796875 Z M 0 81.878906 " fill-opacity="1" fill-rule="nonzero"></path></g></svg>